<?xml version="1.0" encoding="utf-8" standalone="no"?>
<!DOCTYPE svg PUBLIC "-//W3C//DTD SVG 1.1//EN"
  "http://www.w3.org/Graphics/SVG/1.1/DTD/svg11.dtd">
<svg xmlns:xlink="http://www.w3.org/1999/xlink" width="1022.4pt" height="806.4pt" viewBox="0 0 1022.4 806.4" xmlns="http://www.w3.org/2000/svg" version="1.1">
 <metadata>
  <rdf:RDF xmlns:dc="http://purl.org/dc/elements/1.1/" xmlns:cc="http://creativecommons.org/ns#" xmlns:rdf="http://www.w3.org/1999/02/22-rdf-syntax-ns#">
   <cc:Work>
    <dc:type rdf:resource="http://purl.org/dc/dcmitype/StillImage"/>
    <dc:date>2026-07-17T03:09:48.969928</dc:date>
    <dc:format>image/svg+xml</dc:format>
    <dc:creator>
     <cc:Agent>
      <dc:title>Matplotlib v3.10.8, https://matplotlib.org/</dc:title>
     </cc:Agent>
    </dc:creator>
   </cc:Work>
  </rdf:RDF>
 </metadata>
 <defs>
  <style type="text/css">*{stroke-linejoin: round; stroke-linecap: butt}</style>
 </defs>
 <g id="figure_1">
  <g id="patch_1">
   <path d="M 0 806.4 
L 1022.4 806.4 
L 1022.4 0 
L 0 0 
z
" style="fill: #ffffff"/>
  </g>
  <g id="axes_1">
   <g id="line2d_1">
    <path d="M 19.296 157.68 
L 1003.104 157.68 
" clip-path="url(#paea58f03ff)" style="fill: none; stroke: #edf0f3; stroke-width: 0.8; stroke-linecap: square"/>
   </g>
   <g id="line2d_2">
    <path d="M 19.296 228.96 
L 1003.104 228.96 
" clip-path="url(#paea58f03ff)" style="fill: none; stroke: #edf0f3; stroke-width: 0.8; stroke-linecap: square"/>
   </g>
   <g id="line2d_3">
    <path d="M 19.296 300.24 
L 1003.104 300.24 
" clip-path="url(#paea58f03ff)" style="fill: none; stroke: #edf0f3; stroke-width: 0.8; stroke-linecap: square"/>
   </g>
   <g id="line2d_4">
    <path d="M 19.296 371.52 
L 1003.104 371.52 
" clip-path="url(#paea58f03ff)" style="fill: none; stroke: #edf0f3; stroke-width: 0.8; stroke-linecap: square"/>
   </g>
   <g id="line2d_5">
    <path d="M 19.296 442.8 
L 1003.104 442.8 
" clip-path="url(#paea58f03ff)" style="fill: none; stroke: #edf0f3; stroke-width: 0.8; stroke-linecap: square"/>
   </g>
   <g id="line2d_6">
    <path d="M 19.296 514.08 
L 1003.104 514.08 
" clip-path="url(#paea58f03ff)" style="fill: none; stroke: #edf0f3; stroke-width: 0.8; stroke-linecap: square"/>
   </g>
   <g id="line2d_7">
    <path d="M 19.296 585.36 
L 1003.104 585.36 
" clip-path="url(#paea58f03ff)" style="fill: none; stroke: #edf0f3; stroke-width: 0.8; stroke-linecap: square"/>
   </g>
   <g id="line2d_8">
    <path d="M 19.296 656.64 
L 1003.104 656.64 
" clip-path="url(#paea58f03ff)" style="fill: none; stroke: #edf0f3; stroke-width: 0.8; stroke-linecap: square"/>
   </g>
   <g id="patch_2">
    <path d="M 19.296 777.024 
L 1003.104 777.024 
L 1003.104 712.08 
L 19.296 712.08 
z
" clip-path="url(#paea58f03ff)" style="fill: #f6f8fa; stroke: #e3e7eb; stroke-linejoin: miter"/>
   </g>
   <g id="line2d_9">
    <path d="M 213.84 122.04 
L 385.2 122.04 
" clip-path="url(#paea58f03ff)" style="fill: none; stroke: #e3e7eb; stroke-width: 3.2; stroke-linecap: round"/>
   </g>
   <g id="line2d_10">
    <path d="M 213.84 193.32 
L 385.2 193.32 
" clip-path="url(#paea58f03ff)" style="fill: none; stroke: #e3e7eb; stroke-width: 3.2; stroke-linecap: round"/>
   </g>
   <g id="line2d_11">
    <path d="M 213.84 264.6 
L 385.2 264.6 
" clip-path="url(#paea58f03ff)" style="fill: none; stroke: #e3e7eb; stroke-width: 3.2; stroke-linecap: round"/>
   </g>
   <g id="line2d_12">
    <path d="M 213.84 335.88 
L 385.2 335.88 
" clip-path="url(#paea58f03ff)" style="fill: none; stroke: #e3e7eb; stroke-width: 3.2; stroke-linecap: round"/>
   </g>
   <g id="line2d_13">
    <path d="M 213.84 407.16 
L 385.2 407.16 
" clip-path="url(#paea58f03ff)" style="fill: none; stroke: #e3e7eb; stroke-width: 3.2; stroke-linecap: round"/>
   </g>
   <g id="line2d_14">
    <path d="M 213.84 478.44 
L 385.2 478.44 
" clip-path="url(#paea58f03ff)" style="fill: none; stroke: #e3e7eb; stroke-width: 3.2; stroke-linecap: round"/>
   </g>
   <g id="line2d_15">
    <path d="M 213.84 549.72 
L 385.2 549.72 
" clip-path="url(#paea58f03ff)" style="fill: none; stroke: #e3e7eb; stroke-width: 3.2; stroke-linecap: round"/>
   </g>
   <g id="line2d_16">
    <path d="M 213.84 621 
L 385.2 621 
" clip-path="url(#paea58f03ff)" style="fill: none; stroke: #e3e7eb; stroke-width: 3.2; stroke-linecap: round"/>
   </g>
   <g id="line2d_17">
    <path d="M 213.84 692.28 
L 385.2 692.28 
" clip-path="url(#paea58f03ff)" style="fill: none; stroke: #e3e7eb; stroke-width: 3.2; stroke-linecap: round"/>
   </g>
   <g id="patch_3">
    <path d="M 39.456 755.64 
L 51.552 755.64 
Q 56.592 755.64 56.592 751.68 
L 56.592 742.176 
Q 56.592 738.216 51.552 738.216 
L 39.456 738.216 
Q 34.416 738.216 34.416 742.176 
L 34.416 751.68 
Q 34.416 755.64 39.456 755.64 
z
" clip-path="url(#paea58f03ff)" style="fill: #a6dba0; stroke: #1b7837; stroke-width: 1.3; stroke-linejoin: miter"/>
   </g>
   <g id="patch_4">
    <path d="M 374.112 755.64 
L 386.208 755.64 
Q 391.248 755.64 391.248 751.68 
L 391.248 742.176 
Q 391.248 738.216 386.208 738.216 
L 374.112 738.216 
Q 369.072 738.216 369.072 742.176 
L 369.072 751.68 
Q 369.072 755.64 374.112 755.64 
z
" clip-path="url(#paea58f03ff)" style="fill: #d6e2ef; stroke: #3b6ea5; stroke-width: 1.3; stroke-linejoin: miter"/>
   </g>
   <g id="patch_5">
    <path d="M 706.752 755.64 
L 718.848 755.64 
Q 723.888 755.64 723.888 751.68 
L 723.888 742.176 
Q 723.888 738.216 718.848 738.216 
L 706.752 738.216 
Q 701.712 738.216 701.712 742.176 
L 701.712 751.68 
Q 701.712 755.64 706.752 755.64 
z
" clip-path="url(#paea58f03ff)" style="fill: #f3c9c0; stroke: #cc3311; stroke-width: 1.3; stroke-linejoin: miter"/>
   </g>
   <g id="patch_6">
    <path d="M 39.456 776.232 
L 51.552 776.232 
Q 56.592 776.232 56.592 772.272 
L 56.592 762.768 
Q 56.592 758.808 51.552 758.808 
L 39.456 758.808 
Q 34.416 758.808 34.416 762.768 
L 34.416 772.272 
Q 34.416 776.232 39.456 776.232 
z
" clip-path="url(#paea58f03ff)" style="fill: #e7ebef; stroke: #5b6b7c; stroke-width: 1.3; stroke-linejoin: miter"/>
   </g>
   <g id="patch_7">
    <path d="M 374.112 776.232 
L 386.208 776.232 
Q 391.248 776.232 391.248 772.272 
L 391.248 762.768 
Q 391.248 758.808 386.208 758.808 
L 374.112 758.808 
Q 369.072 758.808 369.072 762.768 
L 369.072 772.272 
Q 369.072 776.232 374.112 776.232 
z
" clip-path="url(#paea58f03ff)" style="fill: #f2d5a4; stroke: #c77d1d; stroke-width: 1.3; stroke-linejoin: miter"/>
   </g>
   <g id="patch_8">
    <path d="M 706.752 776.232 
L 718.848 776.232 
Q 723.888 776.232 723.888 772.272 
L 723.888 762.768 
Q 723.888 758.808 718.848 758.808 
L 706.752 758.808 
Q 701.712 758.808 701.712 762.768 
L 701.712 772.272 
Q 701.712 776.232 706.752 776.232 
z
" clip-path="url(#paea58f03ff)" style="fill: #ffffff; stroke: #9aa5b1; stroke-width: 1.3; stroke-linejoin: miter"/>
   </g>
   <g id="patch_9">
    <path d="M 322.704 129.96 
L 327.744 129.96 
Q 333.792 129.96 333.792 127.584 
L 333.792 116.496 
Q 333.792 114.12 327.744 114.12 
L 322.704 114.12 
Q 316.656 114.12 316.656 116.496 
L 316.656 127.584 
Q 316.656 129.96 322.704 129.96 
z
" clip-path="url(#paea58f03ff)" style="fill: #3b6ea5; opacity: 0.85; stroke: #ffffff; stroke-width: 0.8; stroke-linejoin: miter"/>
   </g>
   <g id="patch_10">
    <path d="M 314.136 201.24 
L 319.176 201.24 
Q 325.224 201.24 325.224 198.864 
L 325.224 187.776 
Q 325.224 185.4 319.176 185.4 
L 314.136 185.4 
Q 308.088 185.4 308.088 187.776 
L 308.088 198.864 
Q 308.088 201.24 314.136 201.24 
z
" clip-path="url(#paea58f03ff)" style="fill: #3b6ea5; opacity: 0.85; stroke: #ffffff; stroke-width: 0.8; stroke-linejoin: miter"/>
   </g>
   <g id="patch_11">
    <path d="M 339.84 272.52 
L 344.88 272.52 
Q 350.928 272.52 350.928 270.144 
L 350.928 259.056 
Q 350.928 256.68 344.88 256.68 
L 339.84 256.68 
Q 333.792 256.68 333.792 259.056 
L 333.792 270.144 
Q 333.792 272.52 339.84 272.52 
z
" clip-path="url(#paea58f03ff)" style="fill: #3b6ea5; opacity: 0.85; stroke: #ffffff; stroke-width: 0.8; stroke-linejoin: miter"/>
   </g>
   <g id="patch_12">
    <path d="M 356.976 343.8 
L 362.016 343.8 
Q 368.064 343.8 368.064 341.424 
L 368.064 330.336 
Q 368.064 327.96 362.016 327.96 
L 356.976 327.96 
Q 350.928 327.96 350.928 330.336 
L 350.928 341.424 
Q 350.928 343.8 356.976 343.8 
z
" clip-path="url(#paea58f03ff)" style="fill: #3b6ea5; opacity: 0.85; stroke: #ffffff; stroke-width: 0.8; stroke-linejoin: miter"/>
   </g>
   <g id="patch_13">
    <path d="M 245.592 415.08 
L 250.632 415.08 
Q 256.68 415.08 256.68 412.704 
L 256.68 401.616 
Q 256.68 399.24 250.632 399.24 
L 245.592 399.24 
Q 239.544 399.24 239.544 401.616 
L 239.544 412.704 
Q 239.544 415.08 245.592 415.08 
z
" clip-path="url(#paea58f03ff)" style="fill: #3b6ea5; opacity: 0.85; stroke: #ffffff; stroke-width: 0.8; stroke-linejoin: miter"/>
   </g>
   <g id="patch_14">
    <path d="M 262.728 486.36 
L 267.768 486.36 
Q 273.816 486.36 273.816 483.984 
L 273.816 472.896 
Q 273.816 470.52 267.768 470.52 
L 262.728 470.52 
Q 256.68 470.52 256.68 472.896 
L 256.68 483.984 
Q 256.68 486.36 262.728 486.36 
z
" clip-path="url(#paea58f03ff)" style="fill: #3b6ea5; opacity: 0.85; stroke: #ffffff; stroke-width: 0.8; stroke-linejoin: miter"/>
   </g>
   <g id="patch_15">
    <path d="M 262.728 557.64 
L 267.768 557.64 
Q 273.816 557.64 273.816 555.264 
L 273.816 544.176 
Q 273.816 541.8 267.768 541.8 
L 262.728 541.8 
Q 256.68 541.8 256.68 544.176 
L 256.68 555.264 
Q 256.68 557.64 262.728 557.64 
z
" clip-path="url(#paea58f03ff)" style="fill: #3b6ea5; opacity: 0.85; stroke: #ffffff; stroke-width: 0.8; stroke-linejoin: miter"/>
   </g>
   <g id="patch_16">
    <path d="M 322.704 628.92 
L 327.744 628.92 
Q 333.792 628.92 333.792 626.544 
L 333.792 615.456 
Q 333.792 613.08 327.744 613.08 
L 322.704 613.08 
Q 316.656 613.08 316.656 615.456 
L 316.656 626.544 
Q 316.656 628.92 322.704 628.92 
z
" clip-path="url(#paea58f03ff)" style="fill: #3b6ea5; opacity: 0.85; stroke: #ffffff; stroke-width: 0.8; stroke-linejoin: miter"/>
   </g>
   <g id="patch_17">
    <path d="M 245.592 700.2 
L 250.632 700.2 
Q 256.68 700.2 256.68 697.824 
L 256.68 686.736 
Q 256.68 684.36 250.632 684.36 
L 245.592 684.36 
Q 239.544 684.36 239.544 686.736 
L 239.544 697.824 
Q 239.544 700.2 245.592 700.2 
z
" clip-path="url(#paea58f03ff)" style="fill: #3b6ea5; opacity: 0.85; stroke: #ffffff; stroke-width: 0.8; stroke-linejoin: miter"/>
   </g>
   <g id="text_1">
    <text style="font-weight: 700; font-size: 10px; font-family: 'Calibri'; text-anchor: middle; fill: #1b7837" x="45.504" y="749.4405" transform="rotate(-0 45.504 749.4405)">↑</text>
   </g>
   <g id="text_2">
    <text style="font-weight: 700; font-size: 10px; font-family: 'Calibri'; text-anchor: middle; fill: #3b6ea5" x="380.16" y="749.4405" transform="rotate(-0 380.16 749.4405)">↑</text>
   </g>
   <g id="text_3">
    <text style="font-weight: 700; font-size: 10px; font-family: 'Calibri'; text-anchor: middle; fill: #cc3311" x="712.8" y="749.4405" transform="rotate(-0 712.8 749.4405)">↓</text>
   </g>
   <g id="text_4">
    <text style="font-weight: 700; font-size: 10px; font-family: 'Calibri'; text-anchor: middle; fill: #5b6b7c" x="45.504" y="770.0325" transform="rotate(-0 45.504 770.0325)">→</text>
   </g>
   <g id="text_5">
    <text style="font-weight: 700; font-size: 10px; font-family: 'Calibri'; text-anchor: middle; fill: #c77d1d" x="380.16" y="770.966875" transform="rotate(-0 380.16 770.966875)">↕</text>
   </g>
   <g id="text_6">
    <text style="font-weight: 700; font-size: 10px; font-family: 'Calibri'; text-anchor: middle; fill: #9aa5b1" x="712.8" y="770.0325" transform="rotate(-0 712.8 770.0325)">?</text>
   </g>
   <g id="text_7">
    <text style="font-weight: 700; font-size: 11.5px; font-family: 'Calibri'; text-anchor: start; fill: #232936" x="22.32" y="116.217375" transform="rotate(-0 22.32 116.217375)">H1</text>
   </g>
   <g id="text_8">
    <text style="font-size: 8px; font-family: 'Calibri'; text-anchor: start; fill: #5b6b7c" x="22.32" y="135.1355" transform="rotate(-0 22.32 135.1355)">F1 - per-patch mean-centering</text>
   </g>
   <g id="text_9">
    <text style="font-weight: 700; font-size: 8.2px; font-family: 'Calibri'; text-anchor: middle; fill: #3b6ea5" x="325.224" y="107.46825" transform="rotate(-0 325.224 107.46825)">~60-70%</text>
   </g>
   <g id="text_10">
    <text style="font-size: 13px; font-family: 'Calibri'; text-anchor: middle; fill: #9aa5b1" x="395.28" y="125.305234" transform="rotate(-0 395.28 125.305234)">›</text>
   </g>
   <g id="text_11">
    <text style="font-size: 13px; font-family: 'Calibri'; text-anchor: middle; fill: #9aa5b1" x="658.368" y="125.305234" transform="rotate(-0 658.368 125.305234)">›</text>
   </g>
   <g id="text_12">
    <text style="font-size: 8.2px; font-family: 'Calibri'; text-anchor: start; fill: #232936" x="410.4" y="124.099609" transform="rotate(-0 410.4 124.099609)">epoch-2 29.9% &lt; 34.2% e0, &lt; 33.5% control</text>
   </g>
   <g id="patch_18">
    <path d="M 682.56 144.216 
L 1000.08 144.216 
Q 1012.176 144.216 1012.176 134.712 
L 1012.176 109.368 
Q 1012.176 99.864 1000.08 99.864 
L 682.56 99.864 
Q 670.464 99.864 670.464 109.368 
L 670.464 134.712 
Q 670.464 144.216 682.56 144.216 
z
" clip-path="url(#paea58f03ff)" style="fill: #f3c9c0; stroke: #cc3311; stroke-width: 1.6; stroke-linejoin: miter"/>
   </g>
   <g id="text_13">
    <text style="font-weight: 700; font-size: 11.5px; font-family: 'Calibri'; text-anchor: start; fill: #232936" x="22.32" y="187.497375" transform="rotate(-0 22.32 187.497375)">H8</text>
   </g>
   <g id="text_14">
    <text style="font-size: 8px; font-family: 'Calibri'; text-anchor: start; fill: #5b6b7c" x="22.32" y="206.466125" transform="rotate(-0 22.32 206.466125)">raw-glimpse (bypass model)</text>
   </g>
   <g id="text_15">
    <text style="font-weight: 700; font-size: 8.2px; font-family: 'Calibri'; text-anchor: middle; fill: #3b6ea5" x="316.656" y="178.74825" transform="rotate(-0 316.656 178.74825)">~60%</text>
   </g>
   <g id="text_16">
    <text style="font-size: 13px; font-family: 'Calibri'; text-anchor: middle; fill: #9aa5b1" x="395.28" y="196.585234" transform="rotate(-0 395.28 196.585234)">›</text>
   </g>
   <g id="text_17">
    <text style="font-size: 13px; font-family: 'Calibri'; text-anchor: middle; fill: #9aa5b1" x="658.368" y="196.585234" transform="rotate(-0 658.368 196.585234)">›</text>
   </g>
   <g id="text_18">
    <text style="font-size: 8.2px; font-family: 'Calibri'; fill: #232936" transform="translate(410.4 191.255394)">18.3% &lt;&lt; 33.5% latent  (87.2 -&gt; 18.3,</text>
    <text style="font-size: 8.2px; font-family: 'Calibri'; fill: #232936" transform="translate(410.4 199.530731)">-68.9pp)</text>
   </g>
   <g id="patch_19">
    <path d="M 682.56 215.496 
L 1000.08 215.496 
Q 1012.176 215.496 1012.176 205.992 
L 1012.176 180.648 
Q 1012.176 171.144 1000.08 171.144 
L 682.56 171.144 
Q 670.464 171.144 670.464 180.648 
L 670.464 205.992 
Q 670.464 215.496 682.56 215.496 
z
" clip-path="url(#paea58f03ff)" style="fill: #f2d5a4; stroke: #c77d1d; stroke-width: 1.6; stroke-linejoin: miter"/>
   </g>
   <g id="text_19">
    <text style="font-weight: 700; font-size: 11.5px; font-family: 'Calibri'; text-anchor: start; fill: #232936" x="22.32" y="258.777375" transform="rotate(-0 22.32 258.777375)">H9</text>
   </g>
   <g id="text_20">
    <text style="font-size: 8px; font-family: 'Calibri'; text-anchor: start; fill: #5b6b7c" x="22.32" y="277.697375" transform="rotate(-0 22.32 277.697375)">central-fixation readout</text>
   </g>
   <g id="text_21">
    <text style="font-weight: 700; font-size: 8.2px; font-family: 'Calibri'; text-anchor: middle; fill: #3b6ea5" x="342.36" y="250.02825" transform="rotate(-0 342.36 250.02825)">~75%</text>
   </g>
   <g id="text_22">
    <text style="font-size: 13px; font-family: 'Calibri'; text-anchor: middle; fill: #9aa5b1" x="395.28" y="267.865234" transform="rotate(-0 395.28 267.865234)">›</text>
   </g>
   <g id="text_23">
    <text style="font-size: 13px; font-family: 'Calibri'; text-anchor: middle; fill: #9aa5b1" x="658.368" y="267.865234" transform="rotate(-0 658.368 267.865234)">›</text>
   </g>
   <g id="text_24">
    <text style="font-size: 8.2px; font-family: 'Calibri'; fill: #232936" transform="translate(410.4 262.571909)">central 79.3% vs random 33.5%  (+45.8pp,</text>
    <text style="font-size: 8.2px; font-family: 'Calibri'; fill: #232936" transform="translate(410.4 270.847247)">same weights)</text>
   </g>
   <g id="patch_20">
    <path d="M 682.56 286.776 
L 1000.08 286.776 
Q 1012.176 286.776 1012.176 277.272 
L 1012.176 251.928 
Q 1012.176 242.424 1000.08 242.424 
L 682.56 242.424 
Q 670.464 242.424 670.464 251.928 
L 670.464 277.272 
Q 670.464 286.776 682.56 286.776 
z
" clip-path="url(#paea58f03ff)" style="fill: #a6dba0; stroke: #1b7837; stroke-width: 1.6; stroke-linejoin: miter"/>
   </g>
   <g id="text_25">
    <text style="font-weight: 700; font-size: 11.5px; font-family: 'Calibri'; text-anchor: start; fill: #232936" x="22.32" y="330.057375" transform="rotate(-0 22.32 330.057375)">H10</text>
   </g>
   <g id="text_26">
    <text style="font-size: 8px; font-family: 'Calibri'; text-anchor: start; fill: #5b6b7c" x="22.32" y="348.977375" transform="rotate(-0 22.32 348.977375)">raw-pixel calibration</text>
   </g>
   <g id="text_27">
    <text style="font-weight: 700; font-size: 8.2px; font-family: 'Calibri'; text-anchor: middle; fill: #3b6ea5" x="359.496" y="321.30825" transform="rotate(-0 359.496 321.30825)">~85%</text>
   </g>
   <g id="text_28">
    <text style="font-size: 13px; font-family: 'Calibri'; text-anchor: middle; fill: #9aa5b1" x="395.28" y="339.145234" transform="rotate(-0 395.28 339.145234)">›</text>
   </g>
   <g id="text_29">
    <text style="font-size: 13px; font-family: 'Calibri'; text-anchor: middle; fill: #9aa5b1" x="658.368" y="339.145234" transform="rotate(-0 658.368 339.145234)">›</text>
   </g>
   <g id="text_30">
    <text style="font-size: 8.2px; font-family: 'Calibri'; text-anchor: start; fill: #232936" x="410.4" y="337.9915" transform="rotate(-0 410.4 337.9915)">raw-pixel 87.2%  (~5pp deflation, not ~60pp)</text>
   </g>
   <g id="patch_21">
    <path d="M 682.56 358.056 
L 1000.08 358.056 
Q 1012.176 358.056 1012.176 348.552 
L 1012.176 323.208 
Q 1012.176 313.704 1000.08 313.704 
L 682.56 313.704 
Q 670.464 313.704 670.464 323.208 
L 670.464 348.552 
Q 670.464 358.056 682.56 358.056 
z
" clip-path="url(#paea58f03ff)" style="fill: #a6dba0; stroke: #1b7837; stroke-width: 1.6; stroke-linejoin: miter"/>
   </g>
   <g id="text_31">
    <text style="font-weight: 700; font-size: 11.5px; font-family: 'Calibri'; text-anchor: start; fill: #232936" x="22.32" y="401.337375" transform="rotate(-0 22.32 401.337375)">H11</text>
   </g>
   <g id="text_32">
    <text style="font-size: 8px; font-family: 'Calibri'; text-anchor: start; fill: #5b6b7c" x="22.32" y="420.306125" transform="rotate(-0 22.32 420.306125)">location-augmented (linear head)</text>
   </g>
   <g id="text_33">
    <text style="font-weight: 700; font-size: 8.2px; font-family: 'Calibri'; text-anchor: middle; fill: #3b6ea5" x="248.112" y="392.58825" transform="rotate(-0 248.112 392.58825)">~20%</text>
   </g>
   <g id="text_34">
    <text style="font-size: 13px; font-family: 'Calibri'; text-anchor: middle; fill: #9aa5b1" x="395.28" y="410.425234" transform="rotate(-0 395.28 410.425234)">›</text>
   </g>
   <g id="text_35">
    <text style="font-size: 13px; font-family: 'Calibri'; text-anchor: middle; fill: #9aa5b1" x="658.368" y="410.425234" transform="rotate(-0 658.368 410.425234)">›</text>
   </g>
   <g id="text_36">
    <text style="font-size: 8.2px; font-family: 'Calibri'; fill: #232936" transform="translate(410.4 405.081941)">coords+linear 29.9% = random baseline</text>
    <text style="font-size: 8.2px; font-family: 'Calibri'; fill: #232936" transform="translate(410.4 413.357278)">(+0.0pp)</text>
   </g>
   <g id="patch_22">
    <path d="M 682.56 429.336 
L 1000.08 429.336 
Q 1012.176 429.336 1012.176 419.832 
L 1012.176 394.488 
Q 1012.176 384.984 1000.08 384.984 
L 682.56 384.984 
Q 670.464 384.984 670.464 394.488 
L 670.464 419.832 
Q 670.464 429.336 682.56 429.336 
z
" clip-path="url(#paea58f03ff)" style="fill: #e7ebef; stroke: #5b6b7c; stroke-width: 1.6; stroke-linejoin: miter"/>
   </g>
   <g id="text_37">
    <text style="font-weight: 700; font-size: 11.5px; font-family: 'Calibri'; text-anchor: start; fill: #232936" x="22.32" y="472.617375" transform="rotate(-0 22.32 472.617375)">H2</text>
   </g>
   <g id="text_38">
    <text style="font-size: 8px; font-family: 'Calibri'; text-anchor: start; fill: #5b6b7c" x="22.32" y="491.688" transform="rotate(-0 22.32 491.688)">F4/D13 - self-pred, 30 vs 36 pairs</text>
   </g>
   <g id="text_39">
    <text style="font-weight: 700; font-size: 8.2px; font-family: 'Calibri'; text-anchor: middle; fill: #3b6ea5" x="265.248" y="463.86825" transform="rotate(-0 265.248 463.86825)">~25-35%</text>
   </g>
   <g id="text_40">
    <text style="font-size: 13px; font-family: 'Calibri'; text-anchor: middle; fill: #9aa5b1" x="395.28" y="481.705234" transform="rotate(-0 395.28 481.705234)">›</text>
   </g>
   <g id="text_41">
    <text style="font-size: 13px; font-family: 'Calibri'; text-anchor: middle; fill: #9aa5b1" x="658.368" y="481.705234" transform="rotate(-0 658.368 481.705234)">›</text>
   </g>
   <g id="text_42">
    <text style="font-size: 8.2px; font-family: 'Calibri'; fill: #232936" transform="translate(410.4 476.42075)">cell-3 31.8% &gt; cell-2 29.9% (+1.9); drift</text>
    <text style="font-size: 8.2px; font-family: 'Calibri'; fill: #232936" transform="translate(410.4 484.605375)">flips -4.3 -&gt; +2.3</text>
   </g>
   <g id="patch_23">
    <path d="M 682.56 500.616 
L 1000.08 500.616 
Q 1012.176 500.616 1012.176 491.112 
L 1012.176 465.768 
Q 1012.176 456.264 1000.08 456.264 
L 682.56 456.264 
Q 670.464 456.264 670.464 465.768 
L 670.464 491.112 
Q 670.464 500.616 682.56 500.616 
z
" clip-path="url(#paea58f03ff)" style="fill: #d6e2ef; stroke: #3b6ea5; stroke-width: 1.6; stroke-linejoin: miter"/>
   </g>
   <g id="text_43">
    <text style="font-weight: 700; font-size: 11.5px; font-family: 'Calibri'; text-anchor: start; fill: #232936" x="22.32" y="543.897375" transform="rotate(-0 22.32 543.897375)">H6</text>
   </g>
   <g id="text_44">
    <text style="font-size: 8px; font-family: 'Calibri'; text-anchor: start; fill: #5b6b7c" x="22.32" y="562.866125" transform="rotate(-0 22.32 562.866125)">Thread-F - settle-timing (t15)</text>
   </g>
   <g id="text_45">
    <text style="font-weight: 700; font-size: 8.2px; font-family: 'Calibri'; text-anchor: middle; fill: #3b6ea5" x="265.248" y="535.14825" transform="rotate(-0 265.248 535.14825)">~25-35%</text>
   </g>
   <g id="text_46">
    <text style="font-size: 13px; font-family: 'Calibri'; text-anchor: middle; fill: #9aa5b1" x="395.28" y="552.985234" transform="rotate(-0 395.28 552.985234)">›</text>
   </g>
   <g id="text_47">
    <text style="font-size: 13px; font-family: 'Calibri'; text-anchor: middle; fill: #9aa5b1" x="658.368" y="552.985234" transform="rotate(-0 658.368 552.985234)">›</text>
   </g>
   <g id="text_48">
    <text style="font-size: 8.2px; font-family: 'Calibri'; fill: #232936" transform="translate(410.4 547.717662)">t15 42.5% &gt; 33.5% (+9.0); central +6.2; 3.3x</text>
    <text style="font-size: 8.2px; font-family: 'Calibri'; fill: #232936" transform="translate(410.4 555.868463)">cheaper</text>
   </g>
   <g id="patch_24">
    <path d="M 682.56 571.896 
L 1000.08 571.896 
Q 1012.176 571.896 1012.176 562.392 
L 1012.176 537.048 
Q 1012.176 527.544 1000.08 527.544 
L 682.56 527.544 
Q 670.464 527.544 670.464 537.048 
L 670.464 562.392 
Q 670.464 571.896 682.56 571.896 
z
" clip-path="url(#paea58f03ff)" style="fill: #a6dba0; stroke: #1b7837; stroke-width: 1.6; stroke-linejoin: miter"/>
   </g>
   <g id="text_49">
    <text style="font-weight: 700; font-size: 11.5px; font-family: 'Calibri'; text-anchor: start; fill: #232936" x="22.32" y="615.177375" transform="rotate(-0 22.32 615.177375)">H9-ext</text>
   </g>
   <g id="text_50">
    <text style="font-size: 8px; font-family: 'Calibri'; text-anchor: start; fill: #5b6b7c" x="22.32" y="634.111125" transform="rotate(-0 22.32 634.111125)">self-pred, CENTRAL readout</text>
   </g>
   <g id="text_51">
    <text style="font-weight: 700; font-size: 8.2px; font-family: 'Calibri'; text-anchor: middle; fill: #3b6ea5" x="325.224" y="606.42825" transform="rotate(-0 325.224 606.42825)">~65%</text>
   </g>
   <g id="text_52">
    <text style="font-size: 13px; font-family: 'Calibri'; text-anchor: middle; fill: #9aa5b1" x="395.28" y="624.265234" transform="rotate(-0 395.28 624.265234)">›</text>
   </g>
   <g id="text_53">
    <text style="font-size: 13px; font-family: 'Calibri'; text-anchor: middle; fill: #9aa5b1" x="658.368" y="624.265234" transform="rotate(-0 658.368 624.265234)">›</text>
   </g>
   <g id="text_54">
    <text style="font-size: 8.2px; font-family: 'Calibri'; fill: #232936" transform="translate(410.4 618.981519)">cell-3 central 75.2% &lt; 81.7% bar (-1.5 vs</text>
    <text style="font-size: 8.2px; font-family: 'Calibri'; fill: #232936" transform="translate(410.4 627.164606)">cell-2)</text>
   </g>
   <g id="patch_25">
    <path d="M 682.56 643.176 
L 1000.08 643.176 
Q 1012.176 643.176 1012.176 633.672 
L 1012.176 608.328 
Q 1012.176 598.824 1000.08 598.824 
L 682.56 598.824 
Q 670.464 598.824 670.464 608.328 
L 670.464 633.672 
Q 670.464 643.176 682.56 643.176 
z
" clip-path="url(#paea58f03ff)" style="fill: #e7ebef; stroke: #5b6b7c; stroke-width: 1.6; stroke-linejoin: miter"/>
   </g>
   <g id="text_55">
    <text style="font-weight: 700; font-size: 11.5px; font-family: 'Calibri'; text-anchor: start; fill: #232936" x="22.32" y="686.457375" transform="rotate(-0 22.32 686.457375)">H5</text>
   </g>
   <g id="text_56">
    <text style="font-size: 8px; font-family: 'Calibri'; text-anchor: start; fill: #5b6b7c" x="22.32" y="705.391125" transform="rotate(-0 22.32 705.391125)">F9 - M-step x-B effective lr</text>
   </g>
   <g id="text_57">
    <text style="font-weight: 700; font-size: 8.2px; font-family: 'Calibri'; text-anchor: middle; fill: #3b6ea5" x="248.112" y="677.70825" transform="rotate(-0 248.112 677.70825)">~15-25%</text>
   </g>
   <g id="text_58">
    <text style="font-size: 13px; font-family: 'Calibri'; text-anchor: middle; fill: #9aa5b1" x="395.28" y="695.545234" transform="rotate(-0 395.28 695.545234)">›</text>
   </g>
   <g id="text_59">
    <text style="font-size: 13px; font-family: 'Calibri'; text-anchor: middle; fill: #9aa5b1" x="658.368" y="695.545234" transform="rotate(-0 658.368 695.545234)">›</text>
   </g>
   <g id="text_60">
    <text style="font-size: 8.2px; font-family: 'Calibri'; fill: #232936" transform="translate(410.4 690.295344)">mpc_fid_lr_bigstep (--lr 1.0) - GPU in</text>
    <text style="font-size: 8.2px; font-family: 'Calibri'; fill: #232936" transform="translate(410.4 698.483812)">flight, ETA ~05:05</text>
   </g>
   <g id="patch_26">
    <path d="M 682.56 714.456 
L 1000.08 714.456 
Q 1012.176 714.456 1012.176 704.952 
L 1012.176 679.608 
Q 1012.176 670.104 1000.08 670.104 
L 682.56 670.104 
Q 670.464 670.104 670.464 679.608 
L 670.464 704.952 
Q 670.464 714.456 682.56 714.456 
z
" clip-path="url(#paea58f03ff)" style="fill: #ffffff; stroke: #9aa5b1; stroke-width: 1.6; stroke-linejoin: miter"/>
   </g>
   <g id="text_61">
    <text style="font-size: 8.4px; font-family: 'Calibri'; text-anchor: start; fill: #5b6b7c" x="63.648" y="749.156625" transform="rotate(-0 63.648 749.156625)">confirmed / fired / exonerated (belief ↑)</text>
   </g>
   <g id="text_62">
    <text style="font-size: 8.4px; font-family: 'Calibri'; text-anchor: start; fill: #5b6b7c" x="398.304" y="749.183531" transform="rotate(-0 398.304 749.183531)">weak support (belief ↑, small)</text>
   </g>
   <g id="text_63">
    <text style="font-size: 8.4px; font-family: 'Calibri'; text-anchor: start; fill: #5b6b7c" x="730.944" y="749.091" transform="rotate(-0 730.944 749.091)">refuted as sufficient (belief ↓)</text>
   </g>
   <g id="text_64">
    <text style="font-size: 8.4px; font-family: 'Calibri'; text-anchor: start; fill: #5b6b7c" x="63.648" y="769.748625" transform="rotate(-0 63.648 769.748625)">null / neutral (belief →)</text>
   </g>
   <g id="text_65">
    <text style="font-size: 8.4px; font-family: 'Calibri'; text-anchor: start; fill: #5b6b7c" x="398.304" y="770.347781" transform="rotate(-0 398.304 770.347781)">surprise 3rd branch (↕)</text>
   </g>
   <g id="text_66">
    <text style="font-size: 8.4px; font-family: 'Calibri'; text-anchor: start; fill: #5b6b7c" x="730.944" y="769.786031" transform="rotate(-0 730.944 769.786031)">pending / open (?)</text>
   </g>
   <g id="text_67">
    <text style="font-weight: 700; font-size: 17px; font-family: 'Calibri'; text-anchor: middle; fill: #cc3311" x="694.656" y="126.31125" transform="rotate(-0 694.656 126.31125)">↓</text>
   </g>
   <g id="text_68">
    <text style="font-weight: 700; font-size: 9px; font-family: 'Calibri'; text-anchor: start; fill: #cc3311" x="716.832" y="124.30125" transform="rotate(-0 716.832 124.30125)">REFUTED as sufficient</text>
   </g>
   <g id="text_69">
    <text style="font-weight: 700; font-size: 17px; font-family: 'Calibri'; text-anchor: middle; fill: #c77d1d" x="694.656" y="199.179687" transform="rotate(-0 694.656 199.179687)">↕</text>
   </g>
   <g id="text_70">
    <text style="font-weight: 700; font-size: 9px; font-family: 'Calibri'; fill: #c77d1d" transform="translate(716.832 191.108672)">3rd branch: glimpse destroys,</text>
    <text style="font-weight: 700; font-size: 9px; font-family: 'Calibri'; fill: #c77d1d" transform="translate(716.832 200.053828)">encoder +15.2pp</text>
   </g>
   <g id="text_71">
    <text style="font-weight: 700; font-size: 17px; font-family: 'Calibri'; text-anchor: middle; fill: #1b7837" x="694.656" y="268.87125" transform="rotate(-0 694.656 268.87125)">↑</text>
   </g>
   <g id="text_72">
    <text style="font-weight: 700; font-size: 9px; font-family: 'Calibri'; fill: #1b7837" transform="translate(716.832 262.388672)">FIRED - location-binding</text>
    <text style="font-weight: 700; font-size: 9px; font-family: 'Calibri'; fill: #1b7837" transform="translate(716.832 271.333828)">dominant</text>
   </g>
   <g id="text_73">
    <text style="font-weight: 700; font-size: 17px; font-family: 'Calibri'; text-anchor: middle; fill: #1b7837" x="694.656" y="340.15125" transform="rotate(-0 694.656 340.15125)">↑</text>
   </g>
   <g id="text_74">
    <text style="font-weight: 700; font-size: 9px; font-family: 'Calibri'; text-anchor: start; fill: #1b7837" x="716.832" y="338.14125" transform="rotate(-0 716.832 338.14125)">protocol EXONERATED</text>
   </g>
   <g id="text_75">
    <text style="font-weight: 700; font-size: 17px; font-family: 'Calibri'; text-anchor: middle; fill: #5b6b7c" x="694.656" y="411.43125" transform="rotate(-0 694.656 411.43125)">→</text>
   </g>
   <g id="text_76">
    <text style="font-weight: 700; font-size: 9px; font-family: 'Calibri'; fill: #5b6b7c" transform="translate(716.832 404.953594)">NULL - linear head cannot bind</text>
    <text style="font-weight: 700; font-size: 9px; font-family: 'Calibri'; fill: #5b6b7c" transform="translate(716.832 413.888906)">location</text>
   </g>
   <g id="text_77">
    <text style="font-weight: 700; font-size: 17px; font-family: 'Calibri'; text-anchor: middle; fill: #3b6ea5" x="694.656" y="482.71125" transform="rotate(-0 694.656 482.71125)">↑</text>
   </g>
   <g id="text_78">
    <text style="font-weight: 700; font-size: 9px; font-family: 'Calibri'; text-anchor: start; fill: #3b6ea5" x="716.832" y="480.749766" transform="rotate(-0 716.832 480.749766)">weak SUPPORT (contributor)</text>
   </g>
   <g id="text_79">
    <text style="font-weight: 700; font-size: 17px; font-family: 'Calibri'; text-anchor: middle; fill: #1b7837" x="694.656" y="553.99125" transform="rotate(-0 694.656 553.99125)">↑</text>
   </g>
   <g id="text_80">
    <text style="font-weight: 700; font-size: 9px; font-family: 'Calibri'; text-anchor: start; fill: #1b7837" x="716.832" y="551.98125" transform="rotate(-0 716.832 551.98125)">CONFIRMED - contributes</text>
   </g>
   <g id="text_81">
    <text style="font-weight: 700; font-size: 17px; font-family: 'Calibri'; text-anchor: middle; fill: #5b6b7c" x="694.656" y="625.27125" transform="rotate(-0 694.656 625.27125)">→</text>
   </g>
   <g id="text_82">
    <text style="font-weight: 700; font-size: 9px; font-family: 'Calibri'; text-anchor: start; fill: #5b6b7c" x="716.832" y="623.26125" transform="rotate(-0 716.832 623.26125)">NULL - extraction-neutral</text>
   </g>
   <g id="text_83">
    <text style="font-weight: 700; font-size: 17px; font-family: 'Calibri'; text-anchor: middle; fill: #9aa5b1" x="694.656" y="696.55125" transform="rotate(-0 694.656 696.55125)">?</text>
   </g>
   <g id="text_84">
    <text style="font-weight: 700; font-size: 9px; font-family: 'Calibri'; text-anchor: start; fill: #9aa5b1" x="716.832" y="694.54125" transform="rotate(-0 716.832 694.54125)">PENDING</text>
   </g>
  </g>
  <g id="text_85">
   <text style="font-weight: 700; font-size: 16.5px; font-family: 'Calibri'; text-anchor: start; fill: #232936" x="22.32" y="33.553852" transform="rotate(-0 22.32 33.553852)">Bayesian evidence flow — MPC-MNIST fidelity hypotheses</text>
  </g>
  <g id="text_86">
   <text style="font-style: italic; font-size: 9.6px; font-family: 'Calibri'; text-anchor: start; fill: #5b6b7c" x="22.32" y="53.34975" transform="rotate(-0 22.32 53.34975)">Each prior was committed BEFORE its evidence (order gate, git-timestamped). Prior bands span the stated range; band width = uncertainty. All probes 5k/1k.</text>
  </g>
  <g id="text_87">
   <text style="font-weight: 700; font-size: 9.2px; font-family: 'Calibri'; text-anchor: start; fill: #5b6b7c" x="22.32" y="82.44" transform="rotate(-0 22.32 82.44)">HYPOTHESIS</text>
  </g>
  <g id="text_88">
   <text style="font-weight: 700; font-size: 9.2px; font-family: 'Calibri'; text-anchor: middle; fill: #5b6b7c" x="299.52" y="82.44" transform="rotate(-0 299.52 82.44)">PRIOR  (belief before evidence)</text>
  </g>
  <g id="text_89">
   <text style="font-weight: 700; font-size: 9.2px; font-family: 'Calibri'; text-anchor: start; fill: #5b6b7c" x="410.4" y="82.44" transform="rotate(-0 410.4 82.44)">EVIDENCE  (file-traced)</text>
  </g>
  <g id="text_90">
   <text style="font-weight: 700; font-size: 9.2px; font-family: 'Calibri'; text-anchor: start; fill: #5b6b7c" x="672.48" y="82.44" transform="rotate(-0 672.48 82.44)">POSTERIOR  (verdict + update)</text>
  </g>
  <g id="text_91">
   <text style="font-size: 7px; font-family: 'Calibri'; text-anchor: middle; fill: #9aa5b1" x="213.84" y="97.662203" transform="rotate(-0 213.84 97.662203)">0</text>
  </g>
  <g id="text_92">
   <text style="font-size: 7px; font-family: 'Calibri'; text-anchor: middle; fill: #9aa5b1" x="299.52" y="97.662203" transform="rotate(-0 299.52 97.662203)">50</text>
  </g>
  <g id="text_93">
   <text style="font-size: 7px; font-family: 'Calibri'; text-anchor: middle; fill: #9aa5b1" x="385.2" y="97.662203" transform="rotate(-0 385.2 97.662203)">100</text>
  </g>
  <g id="text_94">
   <text style="font-weight: 700; font-size: 9.2px; font-family: 'Calibri'; text-anchor: start; fill: #232936" x="35.424" y="727.850469" transform="rotate(-0 35.424 727.850469)">Reading the verdict chips</text>
  </g>
 </g>
 <defs>
  <clipPath id="paea58f03ff">
   <rect x="7.2" y="7.2" width="1008" height="792"/>
  </clipPath>
 </defs>
</svg>
